<?xml version="1.0" encoding="utf-8"?>
<!-- Generator: Adobe Illustrator 16.0.0, SVG Export Plug-In . SVG Version: 6.00 Build 0)  -->
<!DOCTYPE svg PUBLIC "-//W3C//DTD SVG 1.1//EN" "http://www.w3.org/Graphics/SVG/1.1/DTD/svg11.dtd">
<svg version="1.1" id="Calque_1" xmlns="http://www.w3.org/2000/svg" xmlns:xlink="http://www.w3.org/1999/xlink" x="0px" y="0px"
	 width="32px" height="32px" viewBox="0 0 32 32" enable-background="new 0 0 32 32" xml:space="preserve">
<g id="Calque_1_-_copie">
	<g id="Layer_1_1_">
	</g>
	<circle fill="#1695A3" cx="16" cy="16" r="16"/>
</g>
<g id="Calque_1_1_" display="none">
	<g id="Layer_1" display="inline">
	</g>
	<g id="move_x5F_alt2" display="inline">
		<path fill="#1695A3" d="M16,0C7.164,0,0,7.164,0,16s7.164,16,16,16s16-7.164,16-16S24.836,0,16,0z M22,20v-2h-4v4h2l-4,4l-4-4h2
			v-4h-4v2l-4-4l4-4v2h4v-4h-2l4-4l4,4h-2v4h4v-2l4,4L22,20z"/>
	</g>
</g>
<g id="Calque_1_-_copie_2">
	<g id="Layer_1_2_">
	</g>
</g>
<g id="Calque_1_-_copie_3">
	<g id="Layer_1_3_">
	</g>
	<polygon fill="#225378" points="29.281,16 23.969,10.688 23.969,13.344 18.656,13.344 18.656,8.031 21.313,8.031 16,2.719 
		10.688,8.031 13.344,8.031 13.344,13.344 8.031,13.344 8.031,10.688 2.719,16 8.031,21.313 8.031,18.656 13.344,18.656 
		13.344,23.969 10.688,23.969 16,29.281 21.313,23.969 18.656,23.969 18.656,18.656 23.969,18.656 23.969,21.313 	"/>
</g>
<g id="Calque_3">
	
		<rect x="13.614" y="-3.888" transform="matrix(-0.707 -0.7072 0.7072 -0.707 15.997 38.629)" fill="#EB7F00" width="4.774" height="39.776"/>
</g>
</svg>
