<?xml version="1.0" encoding="utf-8"?>
<!-- Generator: Adobe Illustrator 16.0.0, SVG Export Plug-In . SVG Version: 6.00 Build 0)  -->
<!DOCTYPE svg PUBLIC "-//W3C//DTD SVG 1.1//EN" "http://www.w3.org/Graphics/SVG/1.1/DTD/svg11.dtd">
<svg version="1.1" xmlns="http://www.w3.org/2000/svg" xmlns:xlink="http://www.w3.org/1999/xlink" x="0px" y="0px" width="32px"
	 height="32px" viewBox="0 0 32 32" enable-background="new 0 0 32 32" xml:space="preserve">
<g id="Calque_1_-_copie">
	<g id="Layer_1_1_">
	</g>
	<circle fill="#1695A3" cx="16" cy="16" r="16"/>
</g>
<g id="Calque_1_-_copie_3">
	<g id="Layer_1_3_">
	</g>
	<polygon fill="#225378" points="29.281,16 23.969,10.688 23.969,13.344 18.656,13.344 18.656,8.031 21.313,8.031 16,2.719 
		10.688,8.031 13.344,8.031 13.344,13.344 8.031,13.344 8.031,10.688 2.719,16 8.031,21.313 8.031,18.656 13.344,18.656 
		13.344,23.969 10.688,23.969 16,29.281 21.313,23.969 18.656,23.969 18.656,18.656 23.969,18.656 23.969,21.313 	"/>
</g>
<g id="Calque_3">
	
		<rect x="13.613" y="-3.888" transform="matrix(0.7071 0.7072 -0.7072 0.7071 16.0012 -6.6274)" fill="#2CDCDC" width="4.774" height="39.774"/>
</g>
</svg>
