<?xml version="1.0" encoding="utf-8"?>
<!-- Generator: Adobe Illustrator 16.0.0, SVG Export Plug-In . SVG Version: 6.00 Build 0)  -->
<!DOCTYPE svg PUBLIC "-//W3C//DTD SVG 1.1//EN" "http://www.w3.org/Graphics/SVG/1.1/DTD/svg11.dtd">
<svg version="1.1" id="Calque_1" xmlns="http://www.w3.org/2000/svg" xmlns:xlink="http://www.w3.org/1999/xlink" x="0px" y="0px"
	 width="300px" height="300px" viewBox="0 0 300 300" enable-background="new 0 0 300 300" xml:space="preserve">
<circle fill="#1695A3" cx="150" cy="150" r="130.803"/>
<path fill="#EB7F00" d="M128.507,150c0,11.869,9.624,21.493,21.493,21.493s21.493-9.624,21.493-21.493s-9.624-21.493-21.493-21.493
	S128.507,138.131,128.507,150z M175.58,102.738c16.766,9.091,28.152,26.85,28.152,47.262s-11.387,38.169-28.152,47.264
	c7.398-11.771,12.031-28.594,12.031-47.264C187.611,131.328,182.979,114.51,175.58,102.738z M112.388,150
	c0,18.67,4.633,35.492,12.032,47.264c-16.765-9.095-28.152-26.852-28.152-47.264s11.387-38.171,28.152-47.262
	C117.021,114.51,112.388,131.328,112.388,150z M80.148,150c0,28.865,9.135,54.771,23.612,72.491
	C79.87,207.217,64.028,180.461,64.028,150c0-30.46,15.842-57.219,39.732-72.491C89.284,95.231,80.148,121.135,80.148,150z
	 M196.239,77.509C220.13,92.781,235.973,119.54,235.973,150c0,30.461-15.843,57.217-39.731,72.491
	c14.478-17.72,23.61-43.626,23.61-72.491S210.717,95.231,196.239,77.509z"/>
</svg>
