<?xml version="1.0" encoding="utf-8"?>
<!-- Generator: Adobe Illustrator 16.0.0, SVG Export Plug-In . SVG Version: 6.00 Build 0)  -->
<!DOCTYPE svg PUBLIC "-//W3C//DTD SVG 1.1//EN" "http://www.w3.org/Graphics/SVG/1.1/DTD/svg11.dtd">
<svg version="1.1" id="Calque_2" xmlns="http://www.w3.org/2000/svg" xmlns:xlink="http://www.w3.org/1999/xlink" x="0px" y="0px"
	 width="600px" height="600px" viewBox="0 0 600 600" enable-background="new 0 0 600 600" xml:space="preserve">
<path fill="#EB7F00" d="M300,65.5C170.489,65.5,65.5,170.489,65.5,300S170.489,534.5,300,534.5S534.5,429.511,534.5,300
	S429.511,65.5,300,65.5z M300,499.5c-110.181,0-199.5-89.319-199.5-199.5S189.819,100.5,300,100.5S499.5,189.819,499.5,300
	S410.181,499.5,300,499.5z"/>
<polygon fill="#EB7F00" points="127.983,167.517 81.865,121.398 131.441,117.941 181.017,114.483 177.559,164.059 174.102,213.635 
	"/>
<polygon fill="#EB7F00" points="469.015,433.349 515.133,479.467 465.557,482.924 415.981,486.382 419.439,436.807 422.896,387.23 
	"/>
</svg>
