<?xml version="1.0" encoding="utf-8"?>
<!-- Generator: Adobe Illustrator 16.0.0, SVG Export Plug-In . SVG Version: 6.00 Build 0)  -->
<!DOCTYPE svg PUBLIC "-//W3C//DTD SVG 1.1//EN" "http://www.w3.org/Graphics/SVG/1.1/DTD/svg11.dtd">
<svg version="1.1" xmlns="http://www.w3.org/2000/svg" xmlns:xlink="http://www.w3.org/1999/xlink" x="0px" y="0px" width="50px"
	 height="50px" viewBox="0 0 50 50" enable-background="new 0 0 50 50" xml:space="preserve">
<g id="Calque_1" display="none">
	<g id="Calque_2" display="inline">
	</g>
	<g id="Calque_1_1_" display="inline">
		<path fill="#EB7F00" d="M25.309,0.428C11.95,0.428,1.12,11.429,1.12,25c0,13.57,10.831,24.572,24.189,24.572
			c13.362,0,24.19-11.002,24.19-24.572C49.499,11.429,38.671,0.428,25.309,0.428z M34.246,40.055l-9.241-9.228l-9.225,9.239
			L9.852,34.15l9.226-9.241l-9.241-9.226l5.918-5.927l9.241,9.226l9.227-9.241l5.926,5.918l-9.225,9.24l9.239,9.225L34.246,40.055z"
			/>
	</g>
</g>
<g id="Calque_3">
	<circle fill="#EB7F00" cx="25" cy="25" r="24.083"/>
</g>
<g id="Calque_2_1_">
	<g>
		
			<rect x="7.917" y="20.706" transform="matrix(0.7071 0.7071 -0.7071 0.7071 24.9979 -10.3555)" fill="#225378" width="34.167" height="8.587"/>
		
			<rect x="7.917" y="20.707" transform="matrix(-0.7071 0.7071 -0.7071 -0.7071 60.3559 24.9998)" fill="#225378" width="34.166" height="8.587"/>
	</g>
</g>
</svg>
