<?xml version="1.0" encoding="utf-8"?>
<!-- Generator: Adobe Illustrator 16.0.0, SVG Export Plug-In . SVG Version: 6.00 Build 0)  -->
<!DOCTYPE svg PUBLIC "-//W3C//DTD SVG 1.1//EN" "http://www.w3.org/Graphics/SVG/1.1/DTD/svg11.dtd">
<svg version="1.1" id="Calque_1" xmlns="http://www.w3.org/2000/svg" xmlns:xlink="http://www.w3.org/1999/xlink" x="0px" y="0px"
	 width="500px" height="500px" viewBox="0 0 500 500" enable-background="new 0 0 500 500" xml:space="preserve">
<path fill="#1695A3" d="M334.05,249.96l-56.03,42.05L165.95,151.89L81.89,376h336.22L334.05,249.96z M376.08,123.92
	c-23.21,0-42.03,18.82-42.03,42.03c0,23.2,18.82,42.02,42.03,42.02c23.22,0,42.03-18.82,42.03-42.02
	C418.11,142.74,399.3,123.92,376.08,123.92z M278.02,292.03L165.95,151.9L81.89,376h336.22L334.05,249.96L278.02,292.03z
	 M376.08,207.97c23.22,0,42.03-18.82,42.03-42.02c0-23.21-18.811-42.03-42.03-42.03c-23.21,0-42.03,18.82-42.03,42.03
	C334.05,189.15,352.87,207.97,376.08,207.97z M26,68v364h448V68H26z M446,404H54V96h392V404z M334.05,249.96l-56.03,42.05
	L165.95,151.89L81.89,376h336.22L334.05,249.96z M376.08,207.97c23.22,0,42.03-18.82,42.03-42.02c0-23.21-18.811-42.03-42.03-42.03
	c-23.21,0-42.03,18.82-42.03,42.03C334.05,189.15,352.87,207.97,376.08,207.97z"/>
<path fill="#EB7F00" d="M54,96v308h392V96H54z M81.89,376l84.06-224.1L278.02,292.01l56.03-42.06L418.11,376H81.89z M376.08,207.97
	c-23.21,0-42.03-18.82-42.03-42.02c0-23.21,18.82-42.03,42.03-42.03c23.22,0,42.03,18.82,42.03,42.03
	C418.11,189.15,399.3,207.97,376.08,207.97z"/>
</svg>
