<?xml version="1.0" encoding="utf-8"?>
<!-- Generator: Adobe Illustrator 16.0.0, SVG Export Plug-In . SVG Version: 6.00 Build 0)  -->
<!DOCTYPE svg PUBLIC "-//W3C//DTD SVG 1.1//EN" "http://www.w3.org/Graphics/SVG/1.1/DTD/svg11.dtd">
<svg version="1.1" id="Calque_1" xmlns="http://www.w3.org/2000/svg" xmlns:xlink="http://www.w3.org/1999/xlink" x="0px" y="0px"
	 width="500px" height="500px" viewBox="0 0 500 500" enable-background="new 0 0 500 500" xml:space="preserve">
<path fill="#1695A3" d="M405.48,125.91L348.71,69.33C336.37,56.97,311.93,47,294.46,47H103.91C86.44,47,72,61.03,72,78.5v343
	c0,17.47,14.44,31.5,31.91,31.5h292.18c17.47,0,31.91-14.03,31.91-31.5V180.13C428,162.66,417.82,138.26,405.48,125.91z M326,83.48
	c2,1.2,3.36,2.44,4.6,3.68l56.78,56.53c1.24,1.25,2.521,3.31,3.74,4.31H326V83.48z M402,180.13V421.5c0,3.45-2.46,6.5-5.91,6.5
	H103.91c-3.45,0-5.91-3.05-5.91-6.5v-343c0-3.44,2.46-6.5,5.91-6.5h190.55c1.93,0,4.54,0.39,6.54,0.82V174h100.78
	C402.21,176,402,178.21,402,180.13z"/>
<path fill="#225378" d="M391.12,148H326V83.48c2,1.2,3.36,2.44,4.6,3.68l56.78,56.53C388.62,144.94,389.9,147,391.12,148z"/>
<path fill="#225378" d="M402,180.13V421.5c0,3.45-2.46,6.5-5.91,6.5H103.91c-3.45,0-5.91-3.05-5.91-6.5v-343
	c0-3.44,2.46-6.5,5.91-6.5h190.55c1.93,0,4.54,0.39,6.54,0.82V174h100.78C402.21,176,402,178.21,402,180.13z"/>
</svg>
