<?xml version="1.0" encoding="utf-8"?>
<!-- Generator: Adobe Illustrator 16.0.0, SVG Export Plug-In . SVG Version: 6.00 Build 0)  -->
<!DOCTYPE svg PUBLIC "-//W3C//DTD SVG 1.1//EN" "http://www.w3.org/Graphics/SVG/1.1/DTD/svg11.dtd">
<svg version="1.1" id="Calque_1" xmlns="http://www.w3.org/2000/svg" xmlns:xlink="http://www.w3.org/1999/xlink" x="0px" y="0px"
	 width="500px" height="500px" viewBox="0 0 500 500" enable-background="new 0 0 500 500" xml:space="preserve">
<g>
	<path fill="#1695A3" d="M408.21,123.61l-57.76-57.74C337.89,53.27,313.08,43,295.29,43H101.2C83.41,43,69,57.53,69,75.32v349.36
		C69,442.47,83.41,457,101.2,457h297.6c17.79,0,32.2-14.53,32.2-32.32V178.83C431,161.04,420.77,136.19,408.21,123.61z M328,80.39
		c1,1.23,3.13,2.49,4.39,3.76l57.682,57.52c1.27,1.27,2.43,3.33,3.66,4.33H328V80.39z M405,178.83v245.85
		c0,3.512-2.69,6.32-6.2,6.32H101.2c-3.51,0-6.2-2.81-6.2-6.32V75.32c0-3.51,2.69-6.32,6.2-6.32h194.09c1.96,0,3.71,0.1,6.71,0.53
		V172h102.59C405.03,175,405,176.88,405,178.83z"/>
	<path fill="#EB7F00" d="M393.73,146H328V80.39c1,1.23,3.13,2.49,4.39,3.76l57.682,57.52C391.34,142.94,392.5,145,393.73,146z"/>
	<path fill="#EB7F00" d="M404.59,172H302V69.53c-3-0.43-4.75-0.53-6.71-0.53H101.2c-3.51,0-6.2,2.81-6.2,6.32v349.36
		c0,3.511,2.69,6.32,6.2,6.32h297.6c3.51,0,6.2-2.809,6.2-6.32V178.83C405,176.88,405.03,175,404.59,172z"/>
	<g>
		<path fill="#1695A3" d="M126.922,318.935c5.207-0.867,12.026-1.611,20.704-1.611c10.662,0,18.473,2.479,23.432,6.942
			c4.587,3.968,7.314,10.042,7.314,17.481c0,7.563-2.231,13.513-6.447,17.853c-5.703,6.075-15.001,9.174-25.54,9.174
			c-3.223,0-6.199-0.124-8.678-0.743v33.474h-10.786V318.935z M137.708,359.228c2.355,0.62,5.331,0.868,8.926,0.868
			c13.018,0,20.952-6.323,20.952-17.854c0-11.033-7.811-16.364-19.712-16.364c-4.711,0-8.307,0.371-10.166,0.867V359.228z"/>
		<path fill="#1695A3" d="M192.877,319.059c6.571-0.991,14.381-1.735,22.936-1.735c15.497,0,26.531,3.595,33.846,10.414
			c7.439,6.818,11.779,16.489,11.779,30.003c0,13.637-4.215,24.795-12.026,32.481c-7.811,7.811-20.705,12.026-36.945,12.026
			c-7.687,0-14.134-0.372-19.589-0.992V319.059z M203.664,392.949c2.728,0.496,6.695,0.62,10.91,0.62
			c23.06,0,35.581-12.894,35.581-35.458c0.124-19.712-11.034-32.233-33.846-32.233c-5.579,0-9.794,0.495-12.646,1.115V392.949z"/>
		<path fill="#1695A3" d="M275.443,317.943h45.004v9.05H286.23v27.771h31.613v8.926H286.23v37.813h-10.787V317.943z"/>
	</g>
</g>
</svg>
