<?xml version="1.0" encoding="utf-8"?>
<!-- Generator: Adobe Illustrator 16.0.0, SVG Export Plug-In . SVG Version: 6.00 Build 0)  -->
<!DOCTYPE svg PUBLIC "-//W3C//DTD SVG 1.1//EN" "http://www.w3.org/Graphics/SVG/1.1/DTD/svg11.dtd">
<svg version="1.1" id="Calque_1" xmlns="http://www.w3.org/2000/svg" xmlns:xlink="http://www.w3.org/1999/xlink" x="0px" y="0px"
	 width="500px" height="500px" viewBox="0 0 500 500" enable-background="new 0 0 500 500" xml:space="preserve">
<path fill="#1695A3" d="M408.21,123.61l-57.76-57.74C337.89,53.27,313.08,43,295.29,43H101.2C83.41,43,69,57.53,69,75.32v349.36
	C69,442.47,83.41,457,101.2,457h297.6c17.79,0,32.2-14.53,32.2-32.32V178.83C431,161.04,420.77,136.19,408.21,123.61z M328,80.39
	c1,1.23,3.13,2.49,4.39,3.76l57.681,57.52c1.27,1.27,2.43,3.33,3.66,4.33H328V80.39z M405,178.83v245.85c0,3.511-2.69,6.32-6.2,6.32
	H101.2c-3.51,0-6.2-2.81-6.2-6.32V75.32c0-3.51,2.69-6.32,6.2-6.32h194.09c1.96,0,3.71,0.1,6.71,0.53V172h102.59
	C405.03,175,405,176.88,405,178.83z"/>
<path fill="#EB7F00" d="M393.73,146H328V80.39c1,1.23,3.13,2.49,4.39,3.76l57.681,57.52C391.34,142.94,392.5,145,393.73,146z"/>
<path fill="#EB7F00" d="M405,178.83v245.85c0,3.511-2.69,6.32-6.2,6.32H101.2c-3.51,0-6.2-2.81-6.2-6.32V75.32
	c0-3.51,2.69-6.32,6.2-6.32h194.09c1.96,0,3.71,0.1,6.71,0.53V172h102.59C405.03,175,405,176.88,405,178.83z"/>
<text transform="matrix(1 0 0 1 115.4043 410.4609)" fill="#1695A3" font-family="'Lato-Regular'" font-size="118.3796">PDF</text>
</svg>
