<?xml version="1.0" encoding="utf-8"?>
<!-- Generator: Adobe Illustrator 16.0.0, SVG Export Plug-In . SVG Version: 6.00 Build 0)  -->
<!DOCTYPE svg PUBLIC "-//W3C//DTD SVG 1.1//EN" "http://www.w3.org/Graphics/SVG/1.1/DTD/svg11.dtd">
<svg version="1.1" id="Calque_1" xmlns="http://www.w3.org/2000/svg" xmlns:xlink="http://www.w3.org/1999/xlink" x="0px" y="0px"
	 width="500px" height="500px" viewBox="0 0 500 500" enable-background="new 0 0 500 500" xml:space="preserve">
<path fill="#1695A3" d="M368,294.12V250c0-16.18-13.58-29-29.75-29H44.08C27.91,221,15,233.82,15,250v147.08
	C15,413.26,27.91,427,44.08,427h294.17c16.17,0,29.75-13.74,29.75-29.92v-44.12l117,73.54V220.58L368,294.12z M309,368H73v-89h236
	V368z M88.21,73.5c-40.62,0-73.55,32.93-73.55,73.54s32.93,73.54,73.55,73.54s73.54-32.93,73.54-73.54S128.83,73.5,88.21,73.5z
	 M264.71,73.5c-40.62,0-73.54,32.93-73.54,73.54s32.92,73.54,73.54,73.54s73.54-32.93,73.54-73.54S305.33,73.5,264.71,73.5z"/>
<rect x="73" y="279" fill="#225378" width="236" height="89"/>
</svg>
