<?xml version="1.0" encoding="utf-8"?>
<!-- Generator: Adobe Illustrator 16.0.0, SVG Export Plug-In . SVG Version: 6.00 Build 0)  -->
<!DOCTYPE svg PUBLIC "-//W3C//DTD SVG 1.1//EN" "http://www.w3.org/Graphics/SVG/1.1/DTD/svg11.dtd">
<svg version="1.1" id="Calque_1" xmlns="http://www.w3.org/2000/svg" xmlns:xlink="http://www.w3.org/1999/xlink" x="0px" y="0px"
	 width="500px" height="500px" viewBox="0 0 500 500" enable-background="new 0 0 500 500" xml:space="preserve">
<path fill="#1695A3" d="M403.24,96.76C362.3,55.84,307.88,33.3,250,33.3S137.7,55.84,96.77,96.76C55.84,137.7,33.3,192.11,33.3,250
	c0,57.89,22.54,112.3,63.47,153.24C137.7,444.16,192.12,466.7,250,466.7s112.3-22.54,153.24-63.46
	C444.16,362.3,466.7,307.89,466.7,250C466.7,192.11,444.16,137.7,403.24,96.76z M384.06,384.09
	c-35.8,35.8-83.43,55.521-134.06,55.521c-50.66,0-98.26-19.721-134.07-55.521c-28.4-28.41-46.67-64.229-53.02-103.1
	c3.14-13.46,9.26-25.75,19.2-34.43c4.19-4.27-0.31-17.05-19.82-23.5c3.41-24.09,11.37-47.07,23.47-67.94
	c23.3,3.7,49.85-22.46,56.39-41.96c8.41-6.37,3.46-11.36-5.28-15.37c32.52-24.27,71.81-37.4,113.13-37.4
	c28.78,0,56.58,6.37,81.8,18.46c-0.97,15.21-19.81,13.18-29.99,1.4c-4.92-0.45-11.359,1.13-18.079,4.02
	c-20.23,8.67-43.141,28.71-34.851,37.99c14.69-9.93,31.33-6.32,19.61,13.27c-16.24,25.46-30.19-9.51-46.78,0.8
	c8.05,7.01-21.74,17.46-30.6,17.94c-18.01-2.92,15.35,13.15,2.66,18.66c-36.9,6.07,18.2,26.27,19.06-3.61
	c34.27-18.91,35.42,41.01,71.07,32.7c-9.78-14.34,2.08-31.26,20.489-33.43c33.33,9.23-22.12,25.48,2.32,29.8
	c-2.61,13.57-34.13,17.41-45.7,29.52c-37.26-1.02-51.45-55.19-91.16-30.25c-27.14,5.84-42.38,43.52-35,68.85
	c12.27,35.391,39.44,38.271,71.11,39.65c29.15,15.1,21.8,69.05,32.96,99.92c16.58,15.4,64.71,52.17,64.05,5.72
	c-5.3-31.89,35.46-93.39,50.83-121.16c24.07-39.77-24.22,4.17-35.18-14.62c-7.13-41.68,34.729-4.729,53.35-17.26
	c17.7,10.87,45.851-8.71,49.311,21.92c3.39,18.811,8.84,15.69,14.55,7.29C428.5,324.13,410.77,357.38,384.06,384.09z"/>
<path fill="#225378" d="M435.83,287.97c-7.33,36.16-25.061,69.41-51.771,96.12c-35.8,35.8-83.43,55.521-134.06,55.521
	c-50.66,0-98.26-19.721-134.07-55.521c-28.4-28.41-46.67-64.229-53.02-103.1c3.14-13.46,9.26-25.75,19.2-34.43
	c4.19-4.27-0.31-17.05-19.82-23.5c3.41-24.09,11.37-47.07,23.47-67.94c23.3,3.7,49.85-22.46,56.39-41.96
	c8.41-6.37,3.46-11.36-5.28-15.37c32.52-24.27,71.81-37.4,113.13-37.4c28.78,0,56.58,6.37,81.8,18.46
	c-0.97,15.21-19.81,13.18-29.99,1.4c-4.92-0.45-11.359,1.13-18.079,4.02c-20.23,8.67-43.141,28.71-34.851,37.99
	c14.69-9.93,31.33-6.32,19.61,13.27c-16.24,25.46-30.19-9.51-46.78,0.8c8.05,7.01-21.74,17.46-30.6,17.94
	c-18.01-2.92,15.35,13.15,2.66,18.66c-36.9,6.07,18.2,26.27,19.06-3.61c34.27-18.91,35.42,41.01,71.07,32.7
	c-9.78-14.34,2.08-31.26,20.489-33.43c33.33,9.23-22.12,25.48,2.32,29.8c-2.61,13.57-34.13,17.41-45.7,29.52
	c-37.26-1.02-51.45-55.19-91.16-30.25c-27.14,5.84-42.38,43.52-35,68.85c12.27,35.391,39.44,38.271,71.11,39.65
	c29.15,15.1,21.8,69.05,32.96,99.92c16.58,15.4,64.71,52.17,64.05,5.72c-5.3-31.89,35.46-93.39,50.83-121.16
	c24.07-39.77-24.22,4.17-35.18-14.62c-7.13-41.68,34.729-4.729,53.35-17.26c17.7,10.87,45.851-8.71,49.311,21.92
	C424.67,299.49,430.12,296.37,435.83,287.97z"/>
</svg>
