<?xml version="1.0" encoding="utf-8"?>
<!-- Generator: Adobe Illustrator 16.0.0, SVG Export Plug-In . SVG Version: 6.00 Build 0)  -->
<!DOCTYPE svg PUBLIC "-//W3C//DTD SVG 1.1//EN" "http://www.w3.org/Graphics/SVG/1.1/DTD/svg11.dtd">
<svg version="1.1" id="Calque_1" xmlns="http://www.w3.org/2000/svg" xmlns:xlink="http://www.w3.org/1999/xlink" x="0px" y="0px"
	 width="300px" height="300px" viewBox="0 0 300 300" enable-background="new 0 0 300 300" xml:space="preserve">
<path fill="#1695A3" d="M281.211,231.09l-81.092-81.096l81.083-81.086c0.881-0.873,1.501-1.893,1.925-2.982
	c1.109-2.965,0.474-6.44-1.925-8.834l-38.299-38.302c-2.39-2.39-5.873-3.019-8.826-1.917c-1.093,0.408-2.112,1.044-2.984,1.909
	L150.001,99.88L68.906,18.789c-0.869-0.873-1.893-1.501-2.985-1.901c-2.965-1.118-6.436-0.481-8.822,1.909L18.788,57.099
	c-2.385,2.386-3.018,5.861-1.917,8.822c0.416,1.097,1.044,2.117,1.913,2.986l81.095,81.095L18.792,231.09
	c-0.876,0.872-1.5,1.892-1.917,2.985c-1.114,2.96-0.473,6.436,1.913,8.825l38.306,38.307c2.395,2.391,5.866,3.01,8.831,1.918
	c1.089-0.426,2.104-1.046,2.981-1.918l81.087-81.091l81.091,81.091c0.873,0.872,1.893,1.502,2.993,1.918
	c2.962,1.108,6.437,0.473,8.826-1.918l38.308-38.307c2.39-2.39,3.025-5.865,1.916-8.825
	C282.711,232.981,282.083,231.962,281.211,231.09z"/>
</svg>
